<?xml version="1.0" encoding="UTF-8" standalone="no"?>
<svg width="65px" height="40px" viewBox="0 0 65 40" version="1.1" xmlns="http://www.w3.org/2000/svg" xmlns:xlink="http://www.w3.org/1999/xlink">
    <!-- Generator: Sketch 43.1 (39012) - http://www.bohemiancoding.com/sketch -->
    <title>Group 9</title>
    <desc>Created with Sketch.</desc>
    <defs></defs>
    <g id="Page-1" stroke="none" stroke-width="1" fill="none" fill-rule="evenodd">
        <g id="Group-9">
            <polygon id="*" fill="#E63333" points="14.0465116 40 13.8803987 36.4630225 16.9368771 38.3601286 18 36.6237942 14.7774086 35.0160772 18 33.4083601 16.9368771 31.6398714 13.8803987 33.5369775 14.0465116 30 11.9534884 30 12.1196013 33.5369775 9.02990033 31.6398714 8 33.4083601 11.2225914 35.0160772 8 36.6237942 9.02990033 38.3601286 12.1196013 36.4630225 11.9534884 40"></polygon>
            <path d="M48.0731967,33.6327352 C47.4363186,32.7310004 47.8215218,32 48.9270103,32 L55.0714965,32 C56.1799229,32 56.5637795,32.7295252 55.9265396,33.6327352 L53.1539028,37.56261 C52.5177037,38.4643447 51.4867126,38.4658199 50.8487926,37.56261 L48.0731967,33.6327352 Z" id="Path-71-Copy" fill="#808890"></path>
            <path d="M3.30285989,8.73328092 C3.06929634,8.73328092 2.83585749,8.64445275 2.66115246,8.46770715 L0.24932512,6.03054868 C-0.092228837,5.6856185 -0.0813799161,5.13625603 0.272768765,4.80395487 C0.627042146,4.471593 1.19118603,4.48179337 1.53261529,4.82684498 L3.94419323,7.26394273 C4.28549778,7.60905505 4.27521001,8.15817467 3.92062488,8.49059725 C3.74791505,8.65271018 3.52507572,8.73328092 3.30285989,8.73328092 Z M6.06796301,5.81172658 L4.54393903,2.76813216 C4.32833231,2.33759179 4.51220282,1.81822324 4.95463927,1.60820502 C5.39657692,1.39836896 5.93010689,1.57730035 6.14577596,2.00790144 L7.66923879,5.05143514 C7.88490785,5.48197552 7.70128675,6.00134406 7.25916205,6.211423 C7.13315246,6.27104655 7.00040905,6.29927971 6.86916205,6.29927971 C6.53926757,6.29927971 6.22221721,6.12004473 6.06796301,5.81172658 Z M10.0154115,4.34420988 L9.4946009,0.997761794 C9.42084071,0.523930586 9.75566085,0.08173265 10.2419294,0.00996580122 C10.7288215,-0.0618010476 11.182668,0.264185595 11.2563659,0.737773937 L11.7771141,4.08446489 C11.8508743,4.55817467 11.5160541,5.00025117 11.0297232,5.07201802 C10.9846441,5.07875754 10.939752,5.08203623 10.8951093,5.08203623 C10.4623371,5.08203623 10.0825002,4.77408238 10.0154115,4.34420988 Z M14.9445625,5.07189658 C14.4582316,5.00012974 14.1234738,4.55805323 14.197234,4.08422202 L14.7179822,0.737713221 C14.79168,0.264064162 15.2457136,-0.0618617641 15.7324186,0.00990508476 C16.2186249,0.0816719336 16.5535697,0.523869869 16.4797472,0.997701077 L15.9590613,4.3442706 C15.8918479,4.77402166 15.5119486,5.08197552 15.0793011,5.08197552 C15.0346585,5.08197552 14.9898287,5.07863611 14.9445625,5.07189658 Z M18.7154354,6.211423 C18.2733731,6.0014655 18.0895649,5.48209695 18.3051716,5.05161729 L19.8286345,2.00790144 C20.0442412,1.57723963 20.5778335,1.39836896 21.0197712,1.60820502 C21.4622076,1.81822324 21.6461405,2.33753107 21.4304714,2.76813216 L19.9065721,5.81160515 C19.7524426,6.11980187 19.4352676,6.29915827 19.1053107,6.29915827 C18.9740014,6.29915827 18.8413203,6.27098584 18.7154354,6.211423 Z M25.7018287,4.80395487 C26.0559774,5.13631674 26.066764,5.6856185 25.72521,6.03048796 L23.3131333,8.46764643 C23.1383659,8.64445275 22.9052388,8.73328092 22.6714882,8.73328092 C22.4490853,8.73328092 22.226433,8.65271018 22.0537856,8.49059725 C21.6990757,8.15811395 21.6887879,7.60899434 22.0300925,7.26388201 L24.4419198,4.82672354 C24.7834738,4.48179337 25.3476177,4.47165372 25.7018287,4.80395487 Z M23.7426276,11.843812 C23.8307016,11.9476888 23.8706057,12.0735075 23.8703207,12.198493 C23.8706057,12.3232007 23.8307016,12.4490194 23.7426276,12.5528962 C20.3935355,16.5079919 16.7990332,18.51137 13.0540356,18.51137 C12.9585509,18.51137 12.8630661,18.5099813 12.7670113,18.5074816 C6.55765194,18.3383346 2.28335527,12.7656492 2.10435698,12.5284546 C2.09609114,12.5173448 2.09039055,12.5048462 2.08326483,12.4934587 C2.07699418,12.4840153 2.07186366,12.4751275 2.06644811,12.4656841 C2.05390683,12.4434645 2.04279069,12.4212449 2.03366976,12.398192 C2.02939432,12.3870822 2.02568894,12.3759723 2.02198356,12.3648625 C2.01485784,12.3429206 2.00887223,12.3209787 2.00459679,12.2987591 C2.00203153,12.2840386 2.00032135,12.2698736 1.99861118,12.2551531 C1.99661597,12.2362664 1.99519083,12.2173797 1.99519083,12.198493 C1.99519083,12.1793285 1.99661597,12.1604418 1.99861118,12.1415552 C2.00003632,12.1268346 2.0017465,12.1123919 2.00459679,12.0979491 C2.00887223,12.0757295 2.01485784,12.0537876 2.02198356,12.0318457 C2.02568894,12.0207359 2.02939432,12.009626 2.03366976,11.9985162 C2.04279069,11.9754634 2.0536218,11.9532437 2.06644811,11.9310241 C2.07186366,11.921303 2.07727921,11.9121374 2.08326483,11.9032495 C2.09039055,11.8915842 2.09609114,11.8793634 2.10435698,11.8682536 C2.28335527,11.6313367 6.55765194,6.05837361 12.7670113,5.88922661 C16.6157595,5.79312667 20.3083118,7.78761698 23.7426276,11.843812 Z M12.8718426,17.1820046 C16.1356655,17.273918 19.2996487,15.5729823 22.3044949,12.151492 C19.2993729,8.73027049 16.1323559,7.03766614 12.8718426,7.12071072 C8.20005819,7.2446057 4.63064833,11.022462 3.66617404,12.151492 C4.63064833,13.280522 8.20033399,17.0581096 12.8718426,17.1820046 Z M13.2182124,8.54141822 C15.2878088,8.54141822 16.9711908,10.181783 16.9711908,12.1982152 C16.9711908,14.2149252 15.2878088,15.85529 13.2182124,15.85529 C11.148616,15.85529 9.46523399,14.2149252 9.46523399,12.1982152 C9.46523399,10.181783 11.148616,8.54141822 13.2182124,8.54141822 Z" id="OpenedEye" fill="#808890"></path>
            <path d="M42.3028599,9.30156032 C42.5250757,9.30156032 42.747915,9.38213105 42.9206249,9.54424399 C43.27521,9.87666657 43.2854978,10.4257862 42.9441932,10.7708985 L40.5326153,13.2079963 C40.191186,13.5530479 39.6270421,13.5632482 39.2727688,13.2308864 C38.9186201,12.8985852 38.9077712,12.3492227 39.2493251,12.0042926 L41.6611525,9.56713409 C41.8358575,9.39038849 42.0692963,9.30156032 42.3028599,9.30156032 Z M45.067963,12.2231147 C45.2222172,11.9147965 45.5392676,11.7355615 45.8691621,11.7355615 C46.0004091,11.7355615 46.1331525,11.7637947 46.2591621,11.8234182 C46.7012868,12.0334972 46.8849079,12.5528657 46.6692388,12.9834061 L45.145776,16.0269398 C44.9301069,16.4575409 44.3965769,16.6364723 43.9546393,16.4266362 C43.5122028,16.216618 43.3283323,15.6972495 43.543939,15.2667091 L45.067963,12.2231147 Z M49.0154115,13.6906314 C49.0825002,13.2607589 49.4623371,12.952805 49.8951093,12.952805 C49.939752,12.952805 49.9846441,12.9560837 50.0297232,12.9628232 C50.5160541,13.0345901 50.8508743,13.4766666 50.7771141,13.9503763 L50.2563659,17.2970673 C50.182668,17.7706556 49.7288215,18.0966423 49.2419294,18.0248754 C48.7556609,17.9531086 48.4208407,17.5109107 48.4946009,17.0370794 L49.0154115,13.6906314 Z M53.9445625,12.9629447 C53.9898287,12.9562051 54.0346585,12.9528657 54.0793011,12.9528657 C54.5119486,12.9528657 54.8918479,13.2608196 54.9590613,13.6905706 L55.4797472,17.0371402 C55.5535697,17.5109714 55.2186249,17.9531693 54.7324186,18.0249362 C54.2457136,18.096703 53.79168,17.7707771 53.7179822,17.297128 L53.197234,13.9506192 C53.1234738,13.476788 53.4582316,13.0347115 53.9445625,12.9629447 Z M57.7154354,11.8234182 C57.8413203,11.7638554 57.9740014,11.735683 58.1053107,11.735683 C58.4352676,11.735683 58.7524426,11.9150394 58.9065721,12.2232361 L60.4304714,15.2667091 C60.6461405,15.6973102 60.4622076,16.216618 60.0197712,16.4266362 C59.5778335,16.6364723 59.0442412,16.4576016 58.8286345,16.0269398 L57.3051716,12.983224 C57.0895649,12.5527443 57.2733731,12.0333757 57.7154354,11.8234182 Z M64.7018287,13.2308864 C64.3476177,13.5631875 63.7834738,13.5530479 63.4419198,13.2081177 L61.0300925,10.7709592 C60.6887879,10.4258469 60.6990757,9.87672729 61.0537856,9.54424399 C61.226433,9.38213105 61.4490853,9.30156032 61.6714882,9.30156032 C61.9052388,9.30156032 62.1383659,9.39038849 62.3131333,9.56719481 L64.72521,12.0043533 C65.066764,12.3492227 65.0559774,12.8985245 64.7018287,13.2308864 Z M41.5189834,5 L41.5189834,5 C43.0651863,6.67826852 46.9368285,10.2697834 51.8526746,10.4001508 C55.4856514,10.492682 59.0193228,8.69923964 62.3844376,5.06744186 C62.5041417,5.20314031 62.6235398,5.3413088 62.7426276,5.48194503 C62.8307016,5.58582184 62.8706057,5.71164054 62.8703207,5.83634826 C62.8706057,5.96133373 62.8307016,6.08715243 62.7426276,6.19102924 C59.3083118,10.2472243 55.6157595,12.2417146 51.7670113,12.1456146 C45.5576519,11.9764676 41.2833553,6.40350454 41.104357,6.16658764 C41.0960911,6.15547782 41.0903906,6.14325702 41.0832648,6.13159171 C41.0772792,6.12270386 41.0718637,6.11353826 41.0664481,6.10381716 C41.0536218,6.08159752 41.0427907,6.05937789 41.0336698,6.03632501 C41.0293943,6.02521519 41.0256889,6.01410537 41.0219836,6.00299555 C41.0148578,5.98105366 41.0088722,5.95911177 41.0045968,5.93689213 C41.0017465,5.92244936 41.0000363,5.9080066 40.9986112,5.89328609 C40.996616,5.8743994 40.9951908,5.8555127 40.9951908,5.83634826 C40.9951908,5.81746157 40.996616,5.79857488 40.9986112,5.77968819 C41.0003214,5.76496768 41.0020315,5.75080266 41.0045968,5.73608215 C41.0088722,5.71386251 41.0148578,5.69192061 41.0219836,5.66997872 C41.0256889,5.6588689 41.0293943,5.64775908 41.0336698,5.63664926 C41.0427907,5.61359639 41.0539068,5.59137675 41.0664481,5.56915711 C41.0718637,5.55971376 41.0769942,5.55082591 41.0832648,5.54138256 C41.0903906,5.529995 41.0960911,5.51749645 41.104357,5.50638663 C41.133942,5.46718279 41.2754021,5.28222451 41.5189834,5 Z" id="ClosedEye" fill="#808890"></path>
        </g>
    </g>
</svg>