<?xml version="1.0" encoding="UTF-8" standalone="no"?>
<svg width="80px" height="77px" viewBox="0 0 80 77" version="1.1" xmlns="http://www.w3.org/2000/svg" xmlns:xlink="http://www.w3.org/1999/xlink">
    <!-- Generator: Sketch 43.1 (39012) - http://www.bohemiancoding.com/sketch -->
    <title>Ilustration</title>
    <desc>Created with Sketch.</desc>
    <defs>
        <ellipse id="path-1" cx="38.5074627" cy="38.5" rx="38.5074627" ry="38.5"></ellipse>
    </defs>
    <g id="Page-1" stroke="none" stroke-width="1" fill="none" fill-rule="evenodd">
        <g id="Desktop" transform="translate(-750.000000, -300.000000)">
            <g id="Group-8" transform="translate(360.000000, 212.000000)">
                <g id="Ilustration" transform="translate(390.000000, 88.000000)">
                    <g id="Group-4" transform="translate(65.074627, 63.868217)">
                        <ellipse id="Oval-4" fill="#E3E3E3" cx="7.1641791" cy="8.95348837" rx="7.1641791" ry="1.79069767"></ellipse>
                        <path d="M13.1819532,4.35137934 C13.4009524,4.71022253 13.4127956,4.82193463 13.1340793,5.14795226 C12.8840856,5.44040115 12.6043838,5.71354383 12.3069421,5.95759361 C12.0384069,6.17784465 11.7202606,6.155716 11.4260094,5.97963875 C11.2000112,5.84449534 10.9743889,5.70455042 10.7671828,5.54287767 C10.1687583,5.07584627 9.54769966,5.14209861 8.90678822,5.43124072 C8.64650486,5.54862277 8.38499375,5.66601317 8.11584052,5.75982194 C7.96310654,5.81305595 7.84194331,5.75285768 7.76474529,5.58468829 C7.24054544,4.44265793 6.70949689,3.30371723 6.17570053,2.166146 C6.11559081,2.03806705 6.11200778,1.93374508 6.2146378,1.83364843 C6.53597466,1.520265 6.88623467,1.27032817 7.3189378,1.31051881 C7.91158273,1.3151199 8.39378847,1.52340477 8.8588725,1.77398458 C9.22117618,1.96922607 9.56600736,2.19686724 9.92867017,2.39137389 C10.5301265,2.71406805 10.7967324,2.65096383 11.2239399,2.11414785 C11.538261,1.71913058 11.5695478,1.71932264 11.8305745,2.14371673 C12.2825875,2.87869685 12.7325293,3.61487944 13.1819532,4.35137934 Z M5.57550535,1.91683545 C6.28054384,3.44206721 8.97722108,9.32281839 8.97722108,9.32281839 C8.97722108,9.32281839 9.15047605,9.67098137 8.80593719,9.81749808 C8.46570799,9.96217769 8.29925994,9.64641439 8.29925994,9.64641439 C8.29925994,9.64641439 5.55814143,3.48781924 4.98735382,2.20125957 C4.86653303,1.92892688 4.89495507,1.83926827 5.13467567,1.72981914 C5.35650618,1.62846157 5.45765789,1.66182991 5.57550535,1.91683545 Z" id="Combined-Shape" fill="#FFC739" transform="translate(9.131285, 5.580850) rotate(23.000000) translate(-9.131285, -5.580850) "></path>
                    </g>
                    <mask id="mask-2" fill="white">
                        <use xlink:href="#path-1"></use>
                    </mask>
                    <use id="Mask" fill="#FFC739" xlink:href="#path-1"></use>
                    <path d="M38.5074627,76.9559762 C59.7745471,76.9559762 77.0149254,59.7189391 77.0149254,38.4559762 C65.1725473,46.8690212 50.9029195,46.4027143 41.3538919,44.5192746 C31.8048642,42.6358348 21.8486797,27.7573854 0,38.4559762 C0,59.7189391 17.2403783,76.9559762 38.5074627,76.9559762 Z" id="Mask-Copy" fill="#2328AE" mask="url(#mask-2)"></path>
                    <path d="M17.6535302,34.7444429 C17.6535302,34.7444429 17.1512,42.4430014 20.9952712,43.6639472 C24.8393425,44.8848931 26.6678678,47.7237532 26.6678678,47.7237532" id="Path-7" stroke="#FFFFFF" stroke-linecap="round" stroke-linejoin="round" stroke-dasharray="4,4" mask="url(#mask-2)"></path>
                    <path d="M38.5074627,76.9559762 C59.7745471,76.9559762 77.0149254,59.7189391 77.0149254,38.4559762 C65.1725473,46.8690212 50.9029195,46.4027143 41.3538919,44.5192746 C31.8048642,42.6358348 21.8486797,27.7573854 7.10542736e-14,38.4559762 C7.10542736e-14,59.7189391 17.2403783,76.9559762 38.5074627,76.9559762 Z" id="Mask-Copy-2" fill="#5B50C6" mask="url(#mask-2)" transform="translate(38.507463, 55.788066) scale(-1, 1) translate(-38.507463, -55.788066) "></path>
                    <g id="Group-3" mask="url(#mask-2)">
                        <g transform="translate(19.104478, 50.736434)">
                            <ellipse id="Oval" fill="#FFFFFF" cx="2.58706468" cy="5.95033915" rx="1" ry="1"></ellipse>
                            <path d="M5.50952575,2.09351637 C5.65552519,2.34022106 5.66342067,2.41702313 5.47760978,2.64116025 C5.31094736,2.84221886 5.12447944,3.03000446 4.92618501,3.19778868 C4.74716155,3.34921127 4.53506397,3.33399782 4.33889653,3.21294472 C4.18823108,3.12003362 4.03781618,3.02382149 3.89967881,2.91267147 C3.50072911,2.59158738 3.08669004,2.63713587 2.65941574,2.83592107 C2.4858935,2.91662123 2.31155276,2.99732713 2.13211727,3.06182066 C2.03029462,3.09841904 1.94951914,3.05703273 1.89805379,2.94141628 C1.54858722,2.1562704 1.19455486,1.37324867 0.838690613,0.591168447 C0.798617467,0.503114168 0.79622878,0.431392815 0.864648792,0.362576369 C1.07887337,0.147125263 1.31238004,-0.0247063078 1.60084879,0.00292475541 C1.99594541,0.00608800407 2.31741591,0.14928385 2.62747193,0.321557473 C2.86900771,0.455785997 3.09889517,0.612289303 3.34067038,0.746012627 C3.74164127,0.967864861 3.91937851,0.924480705 4.2041835,0.555419719 C4.41373092,0.283845348 4.43458878,0.28397739 4.60860657,0.575748327 C4.90994862,1.08104716 5.2099098,1.58717269 5.50952575,2.09351637 Z M0.438560492,0.419767445 C0.908586155,1.46836428 2.70637098,5.51138071 2.70637098,5.51138071 C2.70637098,5.51138071 2.8218743,5.75074276 2.59218172,5.851473 C2.36536225,5.95094024 2.25439689,5.73385297 2.25439689,5.73385297 C2.25439689,5.73385297 0.426984547,1.4998188 0.0464594763,0.615309029 C-0.0340877161,0.428080302 -0.0151396934,0.36644001 0.144674043,0.29119373 C0.292561049,0.221510405 0.35999552,0.244451134 0.438560492,0.419767445 Z" id="Combined-Shape" fill="#FFC739"></path>
                        </g>
                    </g>
                    <g id="Group-3-Copy" mask="url(#mask-2)">
                        <g transform="translate(37.611940, 59.093023)">
                            <ellipse id="Oval" fill="#FFFFFF" cx="3.88059701" cy="8.65503876" rx="1" ry="1"></ellipse>
                            <path d="M8.26428863,3.04511472 C8.48328779,3.40395791 8.495131,3.51567001 8.21641466,3.84168764 C7.96642103,4.13413653 7.68671915,4.40727922 7.38927752,4.65132899 C7.12074233,4.87158003 6.80259595,4.84945138 6.5083448,4.67337413 C6.28234662,4.53823072 6.05672427,4.3982858 5.84951821,4.23661305 C5.25109366,3.76958165 4.63003505,3.83583399 3.98912361,4.1249761 C3.72884026,4.24235815 3.46732915,4.35974855 3.19817591,4.45355732 C3.04544193,4.50679133 2.92427871,4.44659306 2.84708069,4.27842367 C2.32288083,3.13639331 1.79183229,1.99745261 1.25803592,0.859881378 C1.1979262,0.731802426 1.19434317,0.627480458 1.29697319,0.527383809 C1.61831005,0.214000383 1.96857007,-0.0359364477 2.40127319,0.00425418969 C2.99391812,0.00885527865 3.47612386,0.217140146 3.94120789,0.46771996 C4.30351157,0.66296145 4.64834275,0.890602623 5.01100557,1.08510927 C5.61246191,1.40780343 5.87906777,1.34469921 6.30627525,0.807883227 C6.62059638,0.412865961 6.65188317,0.413058021 6.91290986,0.837452113 C7.36492293,1.57243223 7.81486469,2.30861482 8.26428863,3.04511472 Z M0.657840738,0.610570829 C1.36287923,2.13580259 4.05955647,8.01655377 4.05955647,8.01655377 C4.05955647,8.01655377 4.23281144,8.36471675 3.88827258,8.51123346 C3.54804338,8.65591307 3.38159533,8.34014977 3.38159533,8.34014977 C3.38159533,8.34014977 0.640476821,2.18155462 0.0696892145,0.894994951 C-0.0511315741,0.622662257 -0.0227095401,0.533003651 0.217011065,0.423554516 C0.438841574,0.322196952 0.53999328,0.355565285 0.657840738,0.610570829 Z" id="Combined-Shape" fill="#FFC739"></path>
                        </g>
                    </g>
                    <ellipse id="Oval-Copy" fill="#FFFFFF" mask="url(#mask-2)" cx="50.6609901" cy="44.4689922" rx="1" ry="1"></ellipse>
                    <path d="M52.7098178,41.9567585 C52.8093125,42.1179209 52.814693,42.1680927 52.6880679,42.3145126 C52.5744919,42.4458562 52.4474191,42.5685291 52.3122867,42.6781358 C52.1902871,42.7770542 52.0457482,42.7671159 51.9120654,42.6880367 C51.8093909,42.6273415 51.7068872,42.56449 51.6127503,42.4918801 C51.3408768,42.2821286 51.0587203,42.3118836 50.7675443,42.4417421 C50.6492936,42.4944603 50.530485,42.5471823 50.4082046,42.5893133 C50.3388152,42.6132216 50.2837688,42.5861856 50.2486966,42.5106579 C50.0105445,41.9977532 49.769281,41.4862362 49.526769,40.9753342 C49.4994602,40.9178118 49.4978324,40.8709591 49.5444588,40.8260041 C49.6904471,40.6852584 49.8495757,40.5730076 50.0461594,40.5910579 C50.3154071,40.5931243 50.5344806,40.6866685 50.7457755,40.799208 C50.9103756,40.8868942 51.0670378,40.9891316 51.2318011,41.0764878 C51.505052,41.221415 51.6261751,41.1930739 51.8202621,40.951981 C51.963063,40.7745722 51.9772771,40.7746585 52.0958656,40.9652608 C52.3012221,41.2953525 52.5056376,41.6259843 52.7098178,41.9567585 Z M49.2540911,40.8633647 C49.574401,41.5483715 50.7995431,44.1895138 50.7995431,44.1895138 C50.7995431,44.1895138 50.8782555,44.3458795 50.7217261,44.4116826 C50.5671548,44.4766606 50.4915348,44.3348461 50.4915348,44.3348461 C50.4915348,44.3348461 49.2462024,41.5689194 48.9868848,40.9911043 C48.931994,40.8687952 48.9449066,40.828528 49.0538154,40.7793726 C49.1545964,40.7338513 49.2005512,40.7488375 49.2540911,40.8633647 Z" id="Combined-Shape-Copy" fill="#FFC739" mask="url(#mask-2)"></path>
                    <path d="M38.6011279,77.2990471 C38.6011279,77.2990471 48.388163,75.2028844 48.3881624,68.134915 C48.3881619,61.0669456 50.4358364,57.05512 59.6973858,52.947672 C68.9589351,48.8402239 52.0719345,36.8530944 52.0719345,36.8530944" id="Path-6" stroke="#FFFFFF" stroke-linecap="round" stroke-linejoin="round" stroke-dasharray="4,4" mask="url(#mask-2)"></path>
                </g>
            </g>
        </g>
    </g>
</svg>